<?xml version="1.0" encoding="utf-8"?>
<!-- Generator: Adobe Illustrator 27.6.0, SVG Export Plug-In . SVG Version: 6.00 Build 0)  -->
<svg version="1.1" id="Layer_1" xmlns="http://www.w3.org/2000/svg" xmlns:xlink="http://www.w3.org/1999/xlink" x="0px" y="0px"
	 viewBox="0 0 390.7 109.31" enable-background="new 0 0 390.7 109.31" xml:space="preserve">
<g>
	<path fill="#FFFFFF" d="M49.53,43.3c0,2.62-0.55,4.88-1.64,6.76c-1.09,1.89-2.6,3.43-4.51,4.63s-4.14,2.09-6.68,2.67
		c-2.54,0.57-5.23,0.86-8.08,0.86H0V0h33.78c2.02,0,3.85,0.44,5.49,1.31c1.64,0.88,3.03,2.01,4.18,3.4s2.04,2.98,2.67,4.76
		c0.63,1.78,0.94,3.6,0.94,5.45c0,2.73-0.7,5.34-2.09,7.83c-1.39,2.49-3.48,4.36-6.27,5.62c3.33,0.98,5.97,2.69,7.91,5.12
		C48.56,35.93,49.53,39.2,49.53,43.3z M15.99,13.61v8.94H26.9c1.09,0,2.09-0.3,2.99-0.9s1.35-1.8,1.35-3.61
		c0-1.58-0.38-2.72-1.15-3.4s-1.67-1.02-2.71-1.02H15.99V13.61z M33.29,40.02c0-1.42-0.38-2.61-1.15-3.57
		c-0.77-0.96-1.75-1.44-2.95-1.44h-13.2v9.76h12.63c1.31,0,2.42-0.41,3.32-1.23C32.84,42.72,33.29,41.55,33.29,40.02z"/>
	<path fill="#FFFFFF" d="M82,44.53c1.86,0,3.44-0.41,4.76-1.23c1.31-0.82,2.38-1.9,3.2-3.24s1.42-2.88,1.8-4.63s0.57-3.58,0.57-5.49
		V0.01h15.99v29.93c0,4.05-0.52,7.83-1.56,11.36s-2.65,6.57-4.84,9.14s-4.93,4.59-8.24,6.07s-7.2,2.21-11.69,2.21
		c-4.65,0-8.62-0.78-11.93-2.34s-6.03-3.65-8.16-6.27s-3.69-5.67-4.67-9.14s-1.48-7.15-1.48-11.03V0.01h15.99v29.93
		c0,1.91,0.19,3.76,0.57,5.54s0.98,3.33,1.8,4.67c0.82,1.34,1.87,2.41,3.16,3.2C78.57,44.13,80.14,44.53,82,44.53z"/>
	<path fill="#FFFFFF" d="M117.51,58.22V0h15.99v58.22H117.51z"/>
	<path fill="#FFFFFF" d="M143.5,58.22V0h15.99v44.28h26.4v13.94H143.5z"/>
	<path fill="#FFFFFF" d="M191.47,58.22V0h22.39c4.81,0,9.05,0.77,12.71,2.3c3.66,1.53,6.72,3.61,9.18,6.23s4.32,5.7,5.58,9.23
		s1.89,7.29,1.89,11.27c0,4.43-0.7,8.43-2.09,12.01c-1.39,3.58-3.38,6.64-5.94,9.18c-2.57,2.54-5.66,4.51-9.27,5.9
		s-7.63,2.09-12.05,2.09h-22.4V58.22z M226.97,29.03c0-2.24-0.3-4.29-0.9-6.15c-0.6-1.86-1.46-3.44-2.58-4.76
		c-1.12-1.31-2.5-2.34-4.14-3.07c-1.64-0.74-3.47-1.11-5.49-1.11h-6.4v30.34h6.4c2.08,0,3.94-0.38,5.58-1.15s3.02-1.83,4.14-3.2
		c1.12-1.37,1.97-2.98,2.54-4.84C226.69,33.24,226.97,31.22,226.97,29.03z"/>
	<path fill="#FFFFFF" d="M250.18,58.22V0h15.99v58.22H250.18z"/>
	<path fill="#FFFFFF" d="M292.16,29.6v28.62h-15.99V0h12.46L312,29.6V0h15.99v58.22h-12.71L292.16,29.6z"/>
	<path fill="#FFFFFF" d="M377.52,53.38c-4.16,3.5-8.94,5.25-14.35,5.25c-3.77,0-7.38-0.67-10.82-2.01s-6.45-3.29-9.02-5.86
		c-2.57-2.57-4.62-5.71-6.15-9.43s-2.3-7.95-2.3-12.71c0-4.1,0.76-7.91,2.3-11.44c1.53-3.53,3.63-6.59,6.31-9.18
		c2.68-2.6,5.84-4.65,9.47-6.15c3.64-1.5,7.56-2.25,11.77-2.25c2.62,0,5.14,0.29,7.54,0.86c2.41,0.57,4.63,1.42,6.68,2.54
		s3.9,2.46,5.54,4.02c1.64,1.56,2.98,3.32,4.02,5.29l-11.89,9.1c-1.15-2.3-2.87-4.14-5.17-5.54c-2.3-1.39-4.73-2.09-7.3-2.09
		c-1.91,0-3.66,0.38-5.25,1.15s-2.95,1.83-4.1,3.2c-1.15,1.37-2.05,2.99-2.71,4.88c-0.66,1.89-0.98,3.95-0.98,6.19
		c0,2.3,0.33,4.37,0.98,6.23c0.66,1.86,1.57,3.46,2.75,4.8c1.17,1.34,2.58,2.38,4.22,3.12c1.64,0.74,3.47,1.11,5.49,1.11
		c4.65,0,8.75-1.91,12.3-5.74h-10.09V27.24h23.94v31h-13.2v-4.86H377.52z"/>
</g>
<g>
	<path fill="#FFFFFF" d="M30.3,98.76v10.03H0.45V66.9h29.32v10.03H11.95v5.9h15.22v9.32H11.95v6.61H30.3z"/>
	<path fill="#FFFFFF" d="M43.87,66.9l7.61,13.22l7.61-13.22h12.39L57.5,88.14l13.51,20.65H58.62l-7.14-12.63l-7.14,12.63H31.89
		L45.4,88.14L31.42,66.9H43.87z"/>
	<path fill="#FFFFFF" d="M74.43,108.79V66.9h18.05c2.04,0,3.93,0.42,5.66,1.27c1.73,0.85,3.22,1.95,4.45,3.3
		c1.24,1.36,2.21,2.91,2.92,4.66c0.71,1.75,1.06,3.51,1.06,5.28c0,1.85-0.33,3.65-1,5.4s-1.6,3.3-2.8,4.66
		c-1.2,1.36-2.66,2.44-4.37,3.25s-3.59,1.21-5.63,1.21h-6.84v12.86L74.43,108.79L74.43,108.79z M85.94,85.9h6.08
		c0.71,0,1.37-0.32,1.98-0.97s0.91-1.82,0.91-3.51c0-1.73-0.35-2.91-1.06-3.54s-1.42-0.94-2.12-0.94h-5.78L85.94,85.9L85.94,85.9z"
		/>
	<path fill="#FFFFFF" d="M141.04,98.76v10.03h-29.85V66.9h29.32v10.03h-17.82v5.9h15.22v9.32h-15.22v6.61H141.04z"/>
	<path fill="#FFFFFF" d="M146.41,108.79V66.9h19.23c2.04,0,3.93,0.42,5.66,1.27c1.73,0.85,3.22,1.95,4.45,3.3
		c1.24,1.36,2.21,2.91,2.92,4.66c0.71,1.75,1.06,3.51,1.06,5.28c0,2.44-0.53,4.71-1.59,6.81s-2.54,3.83-4.42,5.16l8.85,15.4h-12.98
		l-7.38-12.86h-4.31v12.86h-11.49V108.79z M157.92,85.9h7.26c0.71,0,1.37-0.39,1.98-1.18c0.61-0.79,0.91-1.89,0.91-3.3
		c0-1.45-0.35-2.57-1.06-3.33s-1.42-1.15-2.12-1.15h-6.96L157.92,85.9L157.92,85.9z"/>
	<path fill="#FFFFFF" d="M186.24,108.79V66.9h11.5v41.89H186.24z"/>
	<path fill="#FFFFFF" d="M234.79,98.76v10.03h-29.85V66.9h29.32v10.03h-17.82v5.9h15.22v9.32h-15.22v6.61H234.79z"/>
	<path fill="#FFFFFF" d="M251.66,88.2v20.59h-11.5V66.9h8.97l16.81,21.3V66.9h11.5v41.89h-9.14L251.66,88.2z"/>
	<path fill="#FFFFFF" d="M282.34,87.49c0-2.56,0.48-5.07,1.45-7.55s2.37-4.7,4.22-6.67s4.09-3.56,6.73-4.78
		c2.63-1.22,5.64-1.83,9.03-1.83c4.05,0,7.56,0.84,10.53,2.51c2.97,1.67,5.18,3.88,6.64,6.64l-8.79,6.25
		c-0.39-1.02-0.91-1.87-1.56-2.54s-1.37-1.2-2.15-1.59c-0.79-0.39-1.6-0.67-2.45-0.83c-0.85-0.16-1.66-0.24-2.45-0.24
		c-1.65,0-3.08,0.32-4.28,0.97s-2.18,1.5-2.95,2.54s-1.34,2.22-1.71,3.54s-0.56,2.63-0.56,3.92c0,1.46,0.21,2.85,0.65,4.19
		c0.43,1.34,1.06,2.52,1.89,3.54c0.83,1.02,1.84,1.84,3.04,2.45c1.2,0.61,2.55,0.91,4.04,0.91c0.79,0,1.59-0.09,2.42-0.27
		c0.83-0.18,1.62-0.47,2.39-0.88s1.46-0.94,2.07-1.59s1.09-1.45,1.45-2.39l9.38,5.6c-0.63,1.53-1.58,2.91-2.86,4.13
		c-1.28,1.22-2.73,2.24-4.37,3.07c-1.63,0.83-3.38,1.46-5.25,1.89c-1.87,0.43-3.69,0.65-5.46,0.65c-3.11,0-5.95-0.62-8.53-1.86
		s-4.8-2.88-6.67-4.93c-1.87-2.04-3.31-4.37-4.34-6.96C282.86,92.8,282.34,90.17,282.34,87.49z"/>
	<path fill="#FFFFFF" d="M355.27,98.76v10.03h-29.85V66.9h29.32v10.03h-17.82v5.9h15.22v9.32h-15.22v6.61H355.27z"/>
	<path fill="#FFFFFF" d="M386.01,80.59c-1.18-0.71-2.4-1.34-3.66-1.89c-1.06-0.47-2.25-0.91-3.57-1.33
		c-1.32-0.41-2.61-0.62-3.86-0.62c-1.02,0-1.84,0.16-2.45,0.47c-0.61,0.32-0.92,0.85-0.92,1.59c0,0.55,0.18,1,0.53,1.36
		c0.35,0.35,0.87,0.68,1.53,0.97c0.67,0.29,1.48,0.58,2.45,0.86c0.96,0.28,2.05,0.61,3.27,1c1.93,0.59,3.67,1.24,5.22,1.95
		c1.55,0.71,2.88,1.54,3.98,2.51c1.1,0.96,1.95,2.13,2.54,3.51c0.59,1.38,0.88,3.05,0.88,5.01c0,2.52-0.46,4.63-1.39,6.34
		s-2.14,3.08-3.66,4.1c-1.51,1.02-3.23,1.76-5.13,2.21c-1.91,0.45-3.83,0.68-5.75,0.68c-1.53,0-3.11-0.12-4.72-0.35
		c-1.61-0.24-3.22-0.57-4.81-1s-3.13-0.94-4.6-1.53s-2.84-1.26-4.1-2.01l4.96-10.09c1.38,0.87,2.81,1.63,4.31,2.3
		c1.26,0.59,2.68,1.12,4.28,1.59s3.22,0.71,4.87,0.71c1.26,0,2.13-0.17,2.63-0.5c0.49-0.33,0.74-0.78,0.74-1.33
		c0-0.59-0.25-1.09-0.74-1.5s-1.17-0.78-2.04-1.09s-1.86-0.63-2.98-0.94s-2.31-0.69-3.57-1.12c-1.85-0.63-3.44-1.31-4.78-2.04
		s-2.44-1.55-3.3-2.48c-0.87-0.92-1.5-1.98-1.92-3.16c-0.41-1.18-0.62-2.54-0.62-4.07c0-2.32,0.42-4.37,1.27-6.14s2-3.24,3.45-4.42
		c1.45-1.18,3.12-2.07,4.99-2.68s3.84-0.91,5.93-0.91c1.53,0,3.03,0.15,4.48,0.44c1.46,0.29,2.86,0.67,4.22,1.12
		c1.36,0.45,2.62,0.94,3.81,1.48c1.18,0.53,2.24,1.03,3.19,1.5L386.01,80.59z"/>
</g>
</svg>
